<?xml version="1.0" encoding="UTF-8" standalone="no"?>
<svg
   xmlns:dc="http://purl.org/dc/elements/1.1/"
   xmlns:cc="http://creativecommons.org/ns#"
   xmlns:rdf="http://www.w3.org/1999/02/22-rdf-syntax-ns#"
   xmlns:svg="http://www.w3.org/2000/svg"
   xmlns="http://www.w3.org/2000/svg"
   xmlns:sodipodi="http://sodipodi.sourceforge.net/DTD/sodipodi-0.dtd"
   xmlns:inkscape="http://www.inkscape.org/namespaces/inkscape"
   version="1.1"
   x="0px"
   y="0px"
   viewBox="0 0 100 125"
   style="enable-background:new 0 0 100 100;"
   xml:space="preserve"
   id="svg887"
   sodipodi:docname="modifier.svg"
   inkscape:version="0.92.2 (5c3e80d, 2017-08-06)"><metadata
     id="metadata893"><rdf:RDF><cc:Work
         rdf:about=""><dc:format>image/svg+xml</dc:format><dc:type
           rdf:resource="http://purl.org/dc/dcmitype/StillImage" /><dc:title></dc:title></cc:Work></rdf:RDF></metadata><defs
     id="defs891" /><sodipodi:namedview
     pagecolor="#ffffff"
     bordercolor="#666666"
     borderopacity="1"
     objecttolerance="10"
     gridtolerance="10"
     guidetolerance="10"
     inkscape:pageopacity="0"
     inkscape:pageshadow="2"
     inkscape:window-width="1920"
     inkscape:window-height="1017"
     id="namedview889"
     showgrid="false"
     inkscape:zoom="3.776"
     inkscape:cx="60.123652"
     inkscape:cy="80.495423"
     inkscape:window-x="-8"
     inkscape:window-y="-8"
     inkscape:window-maximized="1"
     inkscape:current-layer="svg887" /><path
     d="m 14.935169,98.569068 c 0.2,0.2 0.5,0.3 0.7,0.3 0.2,0 0.5,-0.1 0.7,-0.3 l 3.5,-3.5 c 0.1,-0.1 0.1,-0.1 0.1,-0.2 l 15.2,-2 c 0.2,0 0.4,-0.1 0.6,-0.3 l 46,-46 c 0.2,-0.2 0.3,-0.4 0.3,-0.7 0,-0.3 -0.1,-0.5 -0.3,-0.7 l -9.8,-9.9 7.1,-7.1 4.9,4.9 -4.8,4.8 c -0.4,0.4 -0.4,1 0,1.4 0.2,0.2 0.5,0.3 0.7,0.3 0.2,0 0.5,-0.1 0.7,-0.3 l 5.5,-5.5 c 0.4,-0.4 0.4,-1 0,-1.4 l -6.4,-6.4 c -0.2,-0.2 -0.4,-0.3 -0.7,-0.3 -0.3,0 -0.5,0.1 -0.7,0.3 l -7.8,7.8 -2.8,-2.8 c -0.4,-0.4 -1,-0.4 -1.4,0 l -5.7,5.7 -3.2,-3.2 c -0.8,-0.8 -2,-1.3 -3.2,-1.3 -1.2,0 -2.3,0.5 -3.2,1.3 l -15.1,15.3 c -0.4,0.4 -0.4,1 0,1.4 0.2,0.2 0.5,0.3 0.7,0.3 0.2,0 0.5,-0.1 0.7,-0.3 l 15.2,-15.2 c 0.9,-0.9 2.6,-0.9 3.5,0 l 3.2,3.2 -38.9,38.9 c -0.2,0.2 -0.3,0.4 -0.3,0.6 l -2.1,16.3 c 0,0.1 0,0.3 0,0.4 l -2.9,2.9 c -0.3,0.3 -0.3,0.9 0,1.3 z m 52,-65.4 12.7,12.7 -4.9,5 -12.7,-12.7 z m -45,45 38.7,-38.7 12.7,12.8 -24,24 -10.5,-10.4 c -0.4,-0.4 -1,-0.4 -1.4,0 -0.4,0.4 -0.4,1 0,1.4 l 10.4,10.4 -12,12 -10.4,-10.3 c -0.4,-0.4 -1,-0.4 -1.4,0 -0.4,0.4 -0.4,1 0,1.4 l 10.3,10.2 -14.2,1.9 z"
     id="path881"
     inkscape:connector-curvature="0"
     style="fill:#a12b37;fill-opacity:1" /></svg>